<svg data-v-fde0c5aa="" xmlns="http://www.w3.org/2000/svg" viewBox="0 0 300 300" class="iconLeft"><!----><defs data-v-fde0c5aa=""><!----></defs><rect data-v-fde0c5aa="" fill="transparent" x="0" y="0" width="300px" height="300px" class="logo-background-square"></rect><defs data-v-fde0c5aa=""><!----></defs><g data-v-fde0c5aa="" id="32f2465d-83e0-4f72-b79d-e3537a40b9cd" fill="#000000" transform="matrix(2.0570406513511257,0,0,2.0570406513511257,75.4628821079472,138.72741789636368)"><path d="M10.40 2.23L10.40 2.23L7.43 2.23C7.17 2.23 6.96 2.42 6.96 2.69L6.96 4.56C6.96 4.82 7.17 5.03 7.43 5.03L9.53 5.03C9.80 5.03 10.01 4.82 10.01 4.56C10.01 4.30 9.80 4.09 9.53 4.09L7.90 4.09L7.90 3.15L10.40 3.15C10.67 3.15 10.88 2.94 10.88 2.69C10.88 2.42 10.67 2.23 10.40 2.23ZM9.53 5.96L9.53 5.96L7.43 5.96C7.17 5.96 6.96 6.17 6.96 6.43L6.96 8.30C6.96 8.55 7.17 8.76 7.43 8.76L10.40 8.76C10.67 8.76 10.88 8.55 10.88 8.30C10.88 8.04 10.67 7.83 10.40 7.83L7.90 7.83L7.90 6.90L9.53 6.90C9.80 6.90 10.01 6.69 10.01 6.43C10.01 6.17 9.80 5.96 9.53 5.96ZM10.40 9.70L10.40 9.70L6.03 9.70L6.03 1.29L10.40 1.29C10.67 1.29 10.88 1.08 10.88 0.81C10.88 0.56 10.67 0.35 10.40 0.35L5.56 0.35C5.31 0.35 5.10 0.56 5.10 0.81L5.10 10.18C5.10 10.43 5.31 10.64 5.56 10.64L10.40 10.64C10.67 10.64 10.88 10.43 10.88 10.18C10.88 9.91 10.67 9.70 10.40 9.70ZM19.64 0.56L19.64 0.56C18.98 0.29 18.28 0.15 17.57 0.15C14.04 0.15 12.29 2.81 12.31 5.47C12.32 8.09 14.08 10.71 17.57 10.71C18.28 10.71 18.98 10.57 19.64 10.30C20.20 10.08 19.85 9.21 19.28 9.45C18.73 9.66 18.17 9.79 17.57 9.79C14.70 9.79 13.23 7.64 13.22 5.45C13.22 2.98 15.01 1.08 17.53 1.08C18.13 1.08 18.72 1.19 19.28 1.43C19.85 1.65 20.20 0.80 19.64 0.56ZM19.00 7.50L19.00 7.50C18.52 7.77 18.00 7.88 17.51 7.87C16.31 7.83 15.23 6.99 15.23 5.45C15.23 3.26 17.37 2.46 19.00 3.36C19.53 3.67 19.98 2.84 19.43 2.56C17.16 1.29 14.31 2.56 14.31 5.45C14.31 7.52 15.82 8.78 17.53 8.81C18.17 8.82 18.83 8.67 19.43 8.32C19.98 8.02 19.53 7.22 19.00 7.50ZM31.68 3.88L31.68 3.88C31.33 2.77 30.63 1.83 29.72 1.16C28.81 0.52 27.72 0.14 26.52 0.14C19.42 0.14 19.42 10.82 26.52 10.82C27.72 10.82 28.81 10.43 29.72 9.79C30.63 9.13 31.33 8.18 31.68 7.08C31.75 6.83 31.63 6.55 31.37 6.48C31.12 6.41 30.84 6.54 30.77 6.79C30.48 7.70 29.92 8.47 29.15 9.02C28.42 9.55 27.51 9.86 26.52 9.86C20.68 9.86 20.68 1.09 26.52 1.09C27.51 1.09 28.42 1.41 29.15 1.93C29.92 2.49 30.48 3.26 30.77 4.16C30.84 4.41 31.12 4.55 31.37 4.47C31.63 4.40 31.75 4.13 31.68 3.88ZM23.63 7.17L23.63 7.17C23.93 7.69 24.35 8.12 24.85 8.43C25.35 8.71 25.93 8.88 26.52 8.88C27.45 8.88 28.29 8.50 28.91 7.87C29.50 7.25 29.88 6.41 29.88 5.47C29.88 4.54 29.50 3.70 28.91 3.08C28.29 2.46 27.45 2.09 26.52 2.09C25.93 2.09 25.35 2.24 24.85 2.53C24.35 2.83 23.93 3.26 23.63 3.78C23.49 4.02 23.58 4.31 23.80 4.44C24.04 4.56 24.32 4.48 24.44 4.24C24.67 3.88 24.98 3.57 25.34 3.36C25.69 3.15 26.08 3.04 26.52 3.04C27.19 3.04 27.79 3.32 28.21 3.75C28.66 4.19 28.92 4.80 28.92 5.47C28.92 6.16 28.66 6.78 28.21 7.21C27.79 7.66 27.19 7.92 26.52 7.92C26.08 7.92 25.68 7.80 25.34 7.59C24.98 7.39 24.67 7.07 24.44 6.71C24.32 6.47 24.04 6.40 23.80 6.52C23.58 6.66 23.49 6.93 23.63 7.17ZM42.01 10.16L42.01 10.16L42.01 4.24C42.01 3.99 41.80 3.78 41.54 3.78C41.37 3.78 41.23 3.86 41.15 3.99L38.74 7.42L36.36 3.98C36.20 3.77 35.90 3.71 35.69 3.86C35.56 3.95 35.49 4.10 35.49 4.24L35.49 4.24L35.49 10.16C35.49 10.43 35.70 10.64 35.95 10.64C36.23 10.64 36.44 10.43 36.44 10.16L36.44 5.75L38.36 8.51C38.39 8.55 38.43 8.60 38.47 8.64C38.68 8.78 38.99 8.72 39.14 8.51L41.06 5.75L41.06 10.16C41.06 10.43 41.27 10.64 41.54 10.64C41.80 10.64 42.01 10.43 42.01 10.16ZM34.54 10.16L34.54 10.16L34.54 0.67C34.54 0.41 34.33 0.20 34.06 0.20C33.80 0.20 33.59 0.41 33.59 0.67L33.59 10.16C33.59 10.43 33.80 10.64 34.06 10.64C34.33 10.64 34.54 10.43 34.54 10.16ZM43.92 10.16L43.92 10.16L43.92 0.67C43.92 0.41 43.71 0.20 43.43 0.20C43.18 0.20 42.97 0.41 42.97 0.67L42.97 10.16C42.97 10.43 43.18 10.64 43.43 10.64C43.71 10.64 43.92 10.43 43.92 10.16ZM41.33 0.39L41.33 0.39L38.74 4.10L36.18 0.39C36.02 0.18 35.71 0.13 35.50 0.28C35.29 0.43 35.25 0.73 35.39 0.94L38.36 5.18C38.39 5.24 38.43 5.28 38.47 5.31C38.68 5.47 38.99 5.42 39.14 5.19L42.11 0.94C42.25 0.73 42.21 0.43 42 0.28C41.78 0.13 41.48 0.18 41.33 0.39ZM54.60 10.16L54.60 10.16L54.60 4.24C54.60 3.99 54.39 3.78 54.12 3.78C53.96 3.78 53.82 3.86 53.73 3.99L51.32 7.42L48.94 3.98C48.79 3.77 48.48 3.71 48.27 3.86C48.15 3.95 48.08 4.10 48.08 4.24L48.08 4.24L48.08 10.16C48.08 10.43 48.29 10.64 48.54 10.64C48.82 10.64 49.03 10.43 49.03 10.16L49.03 5.75L50.95 8.51C50.97 8.55 51.02 8.60 51.06 8.64C51.27 8.78 51.58 8.72 51.73 8.51L53.65 5.75L53.65 10.16C53.65 10.43 53.86 10.64 54.12 10.64C54.39 10.64 54.60 10.43 54.60 10.16ZM47.12 10.16L47.12 10.16L47.12 0.67C47.12 0.41 46.91 0.20 46.65 0.20C46.38 0.20 46.17 0.41 46.17 0.67L46.17 10.16C46.17 10.43 46.38 10.64 46.65 10.64C46.91 10.64 47.12 10.43 47.12 10.16ZM56.50 10.16L56.50 10.16L56.50 0.67C56.50 0.41 56.29 0.20 56.01 0.20C55.76 0.20 55.55 0.41 55.55 0.67L55.55 10.16C55.55 10.43 55.76 10.64 56.01 10.64C56.29 10.64 56.50 10.43 56.50 10.16ZM53.91 0.39L53.91 0.39L51.32 4.10L48.76 0.39C48.61 0.18 48.30 0.13 48.09 0.28C47.88 0.43 47.84 0.73 47.98 0.94L50.95 5.18C50.97 5.24 51.02 5.28 51.06 5.31C51.27 5.47 51.58 5.42 51.73 5.19L54.70 0.94C54.84 0.73 54.80 0.43 54.59 0.28C54.36 0.13 54.07 0.18 53.91 0.39ZM64.06 2.23L64.06 2.23L61.10 2.23C60.83 2.23 60.62 2.42 60.62 2.69L60.62 4.56C60.62 4.82 60.83 5.03 61.10 5.03L63.20 5.03C63.46 5.03 63.67 4.82 63.67 4.56C63.67 4.30 63.46 4.09 63.20 4.09L61.56 4.09L61.56 3.15L64.06 3.15C64.33 3.15 64.54 2.94 64.54 2.69C64.54 2.42 64.33 2.23 64.06 2.23ZM63.20 5.96L63.20 5.96L61.10 5.96C60.83 5.96 60.62 6.17 60.62 6.43L60.62 8.30C60.62 8.55 60.83 8.76 61.10 8.76L64.06 8.76C64.33 8.76 64.54 8.55 64.54 8.30C64.54 8.04 64.33 7.83 64.06 7.83L61.56 7.83L61.56 6.90L63.20 6.90C63.46 6.90 63.67 6.69 63.67 6.43C63.67 6.17 63.46 5.96 63.20 5.96ZM64.06 9.70L64.06 9.70L59.70 9.70L59.70 1.29L64.06 1.29C64.33 1.29 64.54 1.08 64.54 0.81C64.54 0.56 64.33 0.35 64.06 0.35L59.22 0.35C58.97 0.35 58.76 0.56 58.76 0.81L58.76 10.18C58.76 10.43 58.97 10.64 59.22 10.64L64.06 10.64C64.33 10.64 64.54 10.43 64.54 10.18C64.54 9.91 64.33 9.70 64.06 9.70ZM70.42 5.03L70.42 5.03C71.19 5.03 71.83 4.42 71.83 3.64C71.83 2.93 71.27 2.21 70.42 2.21L68.75 2.21C68.14 2.21 68.14 3.15 68.75 3.15L70.42 3.15C70.69 3.15 70.91 3.35 70.91 3.63C70.91 4.17 70.39 4.10 69.96 4.10C69.20 4.10 69.23 4.98 69.96 5.03C70.11 5.04 70.29 5.03 70.42 5.03ZM71.29 9.90L71.29 9.90L69.15 6.83C68.88 6.48 68.29 6.62 68.29 7.13L68.29 10.18C68.29 10.79 69.23 10.79 69.23 10.18L69.23 8.58L70.52 10.44C70.88 10.95 71.64 10.40 71.29 9.90ZM67.35 10.18L67.35 10.18L67.35 1.29L70.57 1.29C71.20 1.29 71.78 1.54 72.20 1.96C73.64 3.42 72.63 5.96 70.57 5.96C70.22 5.96 69.94 6.37 70.22 6.73L72.81 10.44C73.15 10.95 73.92 10.40 73.57 9.90L71.40 6.79C71.96 6.65 72.46 6.34 72.87 5.94C74.89 3.86 73.44 0.35 70.57 0.35L66.89 0.35C66.64 0.35 66.42 0.56 66.42 0.81L66.42 10.18C66.42 10.79 67.35 10.79 67.35 10.18ZM82.04 0.56L82.04 0.56C81.38 0.29 80.68 0.15 79.97 0.15C76.44 0.15 74.69 2.81 74.70 5.47C74.72 8.09 76.48 10.71 79.97 10.71C80.68 10.71 81.38 10.57 82.04 10.30C82.60 10.08 82.25 9.21 81.68 9.45C81.13 9.66 80.57 9.79 79.97 9.79C77.10 9.79 75.63 7.64 75.61 5.45C75.61 2.98 77.41 1.08 79.93 1.08C80.53 1.08 81.12 1.19 81.68 1.43C82.25 1.65 82.60 0.80 82.04 0.56ZM81.40 7.50L81.40 7.50C80.92 7.77 80.40 7.88 79.91 7.87C78.71 7.83 77.63 6.99 77.63 5.45C77.63 3.26 79.77 2.46 81.40 3.36C81.93 3.67 82.38 2.84 81.83 2.56C79.56 1.29 76.71 2.56 76.71 5.45C76.71 7.52 78.22 8.78 79.93 8.81C80.57 8.82 81.23 8.67 81.83 8.32C82.38 8.02 81.93 7.22 81.40 7.50ZM89.24 2.23L89.24 2.23L86.27 2.23C86.00 2.23 85.79 2.42 85.79 2.69L85.79 4.56C85.79 4.82 86.00 5.03 86.27 5.03L88.37 5.03C88.63 5.03 88.84 4.82 88.84 4.56C88.84 4.30 88.63 4.09 88.37 4.09L86.73 4.09L86.73 3.15L89.24 3.15C89.50 3.15 89.71 2.94 89.71 2.69C89.71 2.42 89.50 2.23 89.24 2.23ZM88.37 5.96L88.37 5.96L86.27 5.96C86.00 5.96 85.79 6.17 85.79 6.43L85.79 8.30C85.79 8.55 86.00 8.76 86.27 8.76L89.24 8.76C89.50 8.76 89.71 8.55 89.71 8.30C89.71 8.04 89.50 7.83 89.24 7.83L86.73 7.83L86.73 6.90L88.37 6.90C88.63 6.90 88.84 6.69 88.84 6.43C88.84 6.17 88.63 5.96 88.37 5.96ZM89.24 9.70L89.24 9.70L84.87 9.70L84.87 1.29L89.24 1.29C89.50 1.29 89.71 1.08 89.71 0.81C89.71 0.56 89.50 0.35 89.24 0.35L84.39 0.35C84.14 0.35 83.93 0.56 83.93 0.81L83.93 10.18C83.93 10.43 84.14 10.64 84.39 10.64L89.24 10.64C89.50 10.64 89.71 10.43 89.71 10.18C89.71 9.91 89.50 9.70 89.24 9.70Z"></path></g><defs data-v-fde0c5aa=""><linearGradient data-v-fde0c5aa="" gradientTransform="rotate(25)" id="7a1c8671-d48c-488c-ac9a-64601747c4ca" x1="0%" y1="0%" x2="100%" y2="0%"><stop data-v-fde0c5aa="" offset="0%" stop-color="#70243D" stop-opacity="1"></stop><stop data-v-fde0c5aa="" offset="100%" stop-color="#C15767" stop-opacity="1"></stop></linearGradient></defs><g data-v-fde0c5aa="" id="933a87a4-d2d9-406e-ac0c-fb0661ea77be" stroke="none" fill="url(#7a1c8671-d48c-488c-ac9a-64601747c4ca)" transform="matrix(1.0298059135519768,0,0,1.0298059135519768,40,133.52310538316837)"><path d="M6.651 19.325h6.024V32h6.65V19.325h6.024V32H32V0h-6.651v12.675h-6.024V0h-6.65v12.675H6.651V0H0v32h6.651z"></path></g><!----></svg>